<svg xmlns="http://www.w3.org/2000/svg" viewBox="0 0 512 512" style="height: 512px; width: 512px;"><g class="" transform="translate(0,0)" style=""><g><path d="M176.53 19.47C176 19.466 175.472 19.484 174.937 19.5C174.367 19.517 173.792 19.555 173.219 19.594C157.926 20.632 141.563 29.58 127.937 51.344C100.46 95.229 99.412 149.024 122.093 187.624C137.186 213.314 162.51 232.812 198.968 238.781C199.862 232.231 201.72 225.971 204.436 220.188C193.031 207.861 186.426 193.946 184.186 179.126C179.44 147.746 192.97 114.806 213.216 84.096C221.71 71.212 222.666 59.576 219.561 49.439C216.455 39.299 208.831 30.514 198.748 25.189C192.101 21.679 184.501 19.515 176.528 19.469Z" class="" fill="#dcbe3c" fill-opacity="1"></path><path d="M374.594 49.22C337.524 49.27 302.752 63.777 280.064 88.53C258.776 111.755 247.429 143.886 254.687 183.406C257.424 183.05 260.201 182.844 263.031 182.844C265.279 182.844 267.499 182.962 269.689 183.188C278.367 165.308 290.971 152.805 306.376 145.406C334.984 131.666 370.454 134.961 405.751 145.312C420.557 149.655 431.969 147.162 440.751 141.219C449.533 135.275 455.679 125.389 457.814 114.187C462.082 91.78 451.744 64.787 412.064 54.155C399.561 50.805 386.951 49.201 374.594 49.218Z" class="" fill="#dcbe3c" fill-opacity="1"></path><path d="M261.688 77.812C253.025 77.812 244.493 78.505 236.188 79.78C234.424 84.682 232.003 89.583 228.844 94.375C209.929 123.065 199.024 152.289 202.656 176.313C204.153 186.213 207.946 195.633 214.936 204.375C220.998 197.632 228.463 192.175 236.844 188.437C228.514 143.877 240.387 105.367 264.564 77.844C263.602 77.827 262.652 77.814 261.687 77.814Z" class="" fill="#6f27a6" fill-opacity="1"></path><path d="M350.938 155.124C349.918 155.118 348.911 155.134 347.906 155.154C335.404 155.404 324.05 157.647 314.469 162.249C303.724 167.409 294.575 175.446 287.811 187.812C294.934 190.788 301.426 195.002 306.999 200.187C330.371 186.805 354.297 181.067 377.093 181.78C390.523 182.202 403.555 184.875 415.843 189.5C417.033 189.948 418.199 190.424 419.373 190.906C416.33 181.904 412.53 173.269 408.061 165.031C405.571 164.586 403.045 163.998 400.499 163.251C383.109 158.151 366.223 155.211 350.936 155.126Z" class="" fill="#6f27a6" fill-opacity="1"></path><path d="M103.438 192.562C100.336 202.06 98.041 211.928 96.688 222.092C100.532 225.032 104.214 228.509 107.625 232.562C129.755 258.852 154.687 277.592 178.75 280.937C187.722 282.183 196.85 281.537 206.188 278.28C202.725 271.918 200.283 264.91 199.125 257.5C155.963 251.032 124.16 228.055 105.969 197.094C105.089 195.598 104.253 194.091 103.437 192.564Z" class="" fill="#6f27a6" fill-opacity="1"></path><path d="M370.406 200.124C369.506 200.14 368.593 200.177 367.686 200.218C351.769 200.928 335.252 205.468 318.688 214.654C322.128 220.454 324.662 226.852 326.156 233.624C342.151 236.222 355.572 242.794 366.312 252.624C389.725 274.049 399.887 308.197 403.437 344.81C404.927 360.17 411.495 369.814 420.281 375.748C429.069 381.682 440.531 383.694 451.721 381.498C474.101 377.108 495.301 357.441 490.376 316.654C484.17 265.251 451.181 222.736 409.282 206.967C397.008 202.347 383.932 199.877 370.408 200.122Z" class="" fill="#dcbe3c" fill-opacity="1"></path><path d="M263.03 201.53C237.52 201.53 217.03 222.02 217.03 247.53C217.03 273.043 237.52 293.53 263.03 293.53C288.543 293.53 309 273.043 309 247.53C309 222.02 288.543 201.53 263.03 201.53Z" class="selected" fill="#dc003c" fill-opacity="1"></path><path d="M61.907 228.657C51.305 228.754 40.723 233.597 32.751 241.751C16.807 258.061 10.503 286.265 37.689 317.064C71.951 355.879 123.235 372.184 166.689 361.407C194.475 354.517 219.496 336.965 235.689 306.095C228.939 302.925 222.836 298.627 217.595 293.439C203.751 299.493 189.81 301.362 176.189 299.469C144.754 295.102 117.002 272.736 93.314 244.595C83.377 232.791 72.509 228.561 61.907 228.657Z" class="" fill="#dcbe3c" fill-opacity="1"></path><path d="M327.47 252.47C326.853 260.545 324.765 268.23 321.437 275.22C352.75 303.856 366.341 339.686 364.781 374.844C364.781 374.874 364.784 374.906 364.781 374.938C372.478 368.858 379.617 362.106 386.126 354.781C385.559 352.147 385.119 349.418 384.846 346.595C381.528 312.39 371.611 282.809 353.688 266.407C346.518 259.844 337.966 254.957 327.47 252.47Z" class="" fill="#6f27a6" fill-opacity="1"></path><path d="M311.062 290.72C306.462 295.835 301.064 300.21 295.062 303.656C297.462 319.519 295.336 334.188 289.375 347.344C276.275 376.254 246.982 396.538 213.281 411.281C199.146 417.467 192.039 426.681 189.126 436.876C186.213 447.072 187.816 458.606 193.376 468.564C204.496 488.476 229.791 502.534 267.032 485.189C313.967 463.329 344.112 418.761 346.096 374.032C347.39 344.852 337.216 315.295 311.066 290.722Z" class="" fill="#dcbe3c" fill-opacity="1"></path><path d="M277.47 310.56C272.82 311.63 267.996 312.217 263.03 312.217C259.81 312.217 256.66 311.957 253.563 311.497C234.895 348.594 204.813 371.22 171.188 379.56C169.563 379.962 167.918 380.346 166.281 380.685C176.153 387.599 186.814 393.455 198.095 398.122C200.525 396.687 203.085 395.347 205.815 394.152C237.295 380.38 262.348 361.784 272.375 339.652C276.369 330.842 278.34 321.246 277.47 310.56Z" class="" fill="#6f27a6" fill-opacity="1"></path></g></g></svg>